<svg width="283" height="308" viewBox="0 0 283 308" fill="none" xmlns="http://www.w3.org/2000/svg">
<g filter="url(#filter0_d_1_16838)">
<g filter="url(#filter1_d_1_16838)">
<rect x="24" y="45.0898" width="206.987" height="205.48" rx="16.7593" fill="white"/>
<rect x="24.1389" y="45.2288" width="206.709" height="205.202" rx="16.6204" stroke="#EDF2F7" stroke-width="0.277838"/>
</g>
<path d="M106.876 229.147V229.619H103.614V229.281L105.636 226.152H106.104L105.601 227.057L104.265 229.147H106.876ZM106.246 226.152V230.667H105.673V226.152H106.246ZM108.768 230.667H107.825L107.831 230.18H108.768C109.09 230.18 109.359 230.113 109.574 229.979C109.789 229.842 109.95 229.652 110.058 229.408C110.167 229.162 110.222 228.875 110.222 228.546V228.27C110.222 228.011 110.191 227.782 110.129 227.581C110.067 227.379 109.976 227.208 109.856 227.07C109.736 226.929 109.59 226.823 109.416 226.75C109.244 226.678 109.047 226.642 108.824 226.642H107.806V226.152H108.824C109.119 226.152 109.389 226.201 109.633 226.301C109.877 226.398 110.087 226.539 110.263 226.725C110.44 226.909 110.577 227.133 110.672 227.395C110.767 227.656 110.815 227.949 110.815 228.276V228.546C110.815 228.872 110.767 229.167 110.672 229.43C110.577 229.69 110.439 229.912 110.259 230.096C110.082 230.28 109.867 230.422 109.614 230.521C109.364 230.618 109.082 230.667 108.768 230.667ZM108.144 226.152V230.667H107.546V226.152H108.144Z" fill="#828282"/>
<path d="M138.52 229.199L138.061 229.081L138.287 226.832H140.604V227.363H138.774L138.638 228.591C138.72 228.543 138.825 228.499 138.951 228.457C139.079 228.416 139.226 228.395 139.391 228.395C139.6 228.395 139.787 228.432 139.953 228.504C140.118 228.574 140.259 228.675 140.374 228.808C140.492 228.94 140.582 229.099 140.644 229.285C140.706 229.471 140.737 229.679 140.737 229.909C140.737 230.126 140.707 230.325 140.647 230.507C140.589 230.689 140.502 230.848 140.384 230.985C140.266 231.119 140.117 231.224 139.937 231.298C139.759 231.372 139.549 231.41 139.308 231.41C139.126 231.41 138.953 231.385 138.79 231.335C138.628 231.284 138.484 231.206 138.356 231.103C138.229 230.997 138.126 230.867 138.045 230.712C137.967 230.555 137.917 230.371 137.897 230.16H138.442C138.467 230.329 138.517 230.472 138.591 230.588C138.666 230.704 138.763 230.792 138.883 230.851C139.005 230.909 139.146 230.938 139.308 230.938C139.444 230.938 139.565 230.915 139.67 230.867C139.776 230.819 139.865 230.751 139.937 230.662C140.009 230.573 140.064 230.466 140.101 230.34C140.141 230.214 140.16 230.072 140.16 229.915C140.16 229.772 140.141 229.64 140.101 229.518C140.062 229.396 140.003 229.29 139.925 229.199C139.848 229.108 139.754 229.037 139.642 228.988C139.531 228.936 139.403 228.91 139.258 228.91C139.066 228.91 138.92 228.936 138.821 228.988C138.724 229.039 138.623 229.11 138.52 229.199ZM142.737 231.348H141.795L141.801 230.861H142.737C143.06 230.861 143.329 230.794 143.544 230.659C143.759 230.523 143.92 230.333 144.028 230.089C144.137 229.843 144.192 229.555 144.192 229.226V228.95C144.192 228.692 144.161 228.463 144.099 228.262C144.037 228.059 143.946 227.889 143.826 227.75C143.706 227.61 143.559 227.503 143.386 227.431C143.214 227.358 143.017 227.322 142.793 227.322H141.776V226.832H142.793C143.089 226.832 143.359 226.882 143.603 226.981C143.847 227.078 144.057 227.22 144.232 227.406C144.41 227.59 144.547 227.813 144.642 228.076C144.737 228.336 144.784 228.63 144.784 228.957V229.226C144.784 229.553 144.737 229.848 144.642 230.11C144.547 230.371 144.409 230.593 144.229 230.777C144.051 230.961 143.836 231.103 143.584 231.202C143.334 231.299 143.052 231.348 142.737 231.348ZM142.114 226.832V231.348H141.516V226.832H142.114Z" fill="#828282"/>
<path d="M173.967 226.826H174.016V227.313H173.967C173.663 227.313 173.409 227.363 173.204 227.462C172.999 227.559 172.837 227.69 172.717 227.856C172.597 228.019 172.51 228.203 172.456 228.408C172.405 228.612 172.379 228.82 172.379 229.031V229.695C172.379 229.895 172.403 230.073 172.45 230.228C172.498 230.381 172.563 230.51 172.646 230.616C172.728 230.721 172.821 230.801 172.925 230.855C173.03 230.908 173.14 230.935 173.253 230.935C173.386 230.935 173.504 230.91 173.607 230.861C173.71 230.809 173.797 230.738 173.867 230.647C173.94 230.554 173.995 230.444 174.032 230.318C174.069 230.192 174.088 230.053 174.088 229.903C174.088 229.768 174.071 229.639 174.038 229.515C174.005 229.389 173.954 229.277 173.886 229.18C173.818 229.081 173.732 229.003 173.629 228.947C173.527 228.889 173.406 228.861 173.266 228.861C173.107 228.861 172.958 228.9 172.819 228.978C172.683 229.055 172.57 229.156 172.481 229.282C172.394 229.406 172.345 229.542 172.332 229.689L172.028 229.685C172.057 229.454 172.111 229.256 172.19 229.093C172.27 228.928 172.37 228.793 172.487 228.69C172.607 228.585 172.741 228.508 172.888 228.46C173.036 228.411 173.194 228.386 173.359 228.386C173.584 228.386 173.779 228.428 173.942 228.513C174.105 228.598 174.24 228.712 174.345 228.854C174.451 228.995 174.528 229.154 174.578 229.332C174.629 229.508 174.655 229.689 174.655 229.875C174.655 230.088 174.625 230.287 174.565 230.473C174.505 230.659 174.415 230.823 174.295 230.963C174.178 231.104 174.032 231.213 173.858 231.292C173.685 231.37 173.483 231.41 173.253 231.41C173.01 231.41 172.797 231.36 172.615 231.261C172.433 231.16 172.282 231.025 172.162 230.858C172.042 230.69 171.952 230.504 171.892 230.299C171.832 230.095 171.802 229.887 171.802 229.676V229.406C171.802 229.088 171.834 228.776 171.898 228.47C171.962 228.164 172.073 227.887 172.23 227.639C172.389 227.391 172.609 227.193 172.891 227.046C173.172 226.9 173.53 226.826 173.967 226.826ZM176.708 231.348H175.765L175.772 230.861H176.708C177.031 230.861 177.299 230.794 177.514 230.659C177.73 230.523 177.891 230.333 177.998 230.089C178.108 229.843 178.163 229.555 178.163 229.226V228.95C178.163 228.692 178.132 228.463 178.07 228.262C178.008 228.059 177.917 227.889 177.797 227.75C177.677 227.61 177.53 227.503 177.356 227.431C177.185 227.358 176.987 227.322 176.764 227.322H175.747V226.832H176.764C177.06 226.832 177.329 226.882 177.573 226.981C177.817 227.078 178.027 227.22 178.203 227.406C178.381 227.59 178.517 227.813 178.612 228.076C178.707 228.336 178.755 228.63 178.755 228.957V229.226C178.755 229.553 178.707 229.848 178.612 230.11C178.517 230.371 178.38 230.593 178.2 230.777C178.022 230.961 177.807 231.103 177.555 231.202C177.305 231.299 177.022 231.348 176.708 231.348ZM176.085 226.832V231.348H175.486V226.832H176.085Z" fill="#828282"/>
<path d="M206.089 226.832V227.155L204.219 231.348H203.615L205.482 227.304H203.038V226.832H206.089ZM208.114 231.348H207.172L207.178 230.861H208.114C208.437 230.861 208.706 230.794 208.921 230.659C209.136 230.523 209.297 230.333 209.405 230.089C209.514 229.843 209.569 229.555 209.569 229.226V228.95C209.569 228.692 209.538 228.463 209.476 228.262C209.414 228.059 209.323 227.889 209.203 227.75C209.083 227.61 208.936 227.503 208.763 227.431C208.591 227.358 208.394 227.322 208.17 227.322H207.153V226.832H208.17C208.466 226.832 208.736 226.882 208.98 226.981C209.224 227.078 209.433 227.22 209.609 227.406C209.787 227.59 209.923 227.813 210.019 228.076C210.114 228.336 210.161 228.63 210.161 228.957V229.226C210.161 229.553 210.114 229.848 210.019 230.11C209.923 230.371 209.786 230.593 209.606 230.777C209.428 230.961 209.213 231.103 208.961 231.202C208.711 231.299 208.429 231.348 208.114 231.348ZM207.491 226.832V231.348H206.893V226.832H207.491Z" fill="#828282"/>
<rect x="53.2422" y="219.903" width="27.7739" height="19.6592" rx="9.82962" fill="#E7E7E7" fill-opacity="0.92"/>
<path d="M65.8471 230.955V231.652H62.7584V231.057L64.219 229.491C64.3658 229.327 64.4816 229.184 64.5664 229.06C64.6511 228.934 64.7121 228.821 64.7493 228.722C64.7886 228.62 64.8082 228.524 64.8082 228.433C64.8082 228.297 64.7855 228.18 64.74 228.083C64.6945 227.984 64.6273 227.907 64.5384 227.853C64.4516 227.8 64.3441 227.773 64.2159 227.773C64.0795 227.773 63.9616 227.806 63.8624 227.872C63.7652 227.938 63.6908 228.03 63.6391 228.148C63.5895 228.266 63.5647 228.399 63.5647 228.548H62.6684C62.6684 228.279 62.7325 228.033 62.8607 227.81C62.9889 227.585 63.1698 227.406 63.4034 227.273C63.637 227.139 63.9141 227.072 64.2345 227.072C64.5508 227.072 64.8175 227.124 65.0346 227.227C65.2538 227.328 65.4192 227.475 65.5308 227.667C65.6445 227.858 65.7014 228.085 65.7014 228.35C65.7014 228.498 65.6776 228.644 65.6301 228.787C65.5825 228.927 65.5143 229.068 65.4254 229.209C65.3385 229.347 65.2331 229.488 65.1091 229.63C64.985 229.773 64.8475 229.921 64.6966 230.074L63.912 230.955H65.8471ZM67.8846 231.652H66.9015L66.9077 230.927H67.8846C68.1286 230.927 68.3343 230.872 68.5018 230.762C68.6692 230.651 68.7953 230.488 68.8801 230.275C68.9669 230.062 69.0103 229.805 69.0103 229.503V229.283C69.0103 229.051 68.9855 228.848 68.9359 228.672C68.8884 228.496 68.817 228.349 68.7219 228.229C68.6268 228.109 68.51 228.019 68.3715 227.959C68.233 227.897 68.0738 227.866 67.8939 227.866H66.8829V227.137H67.8939C68.1958 227.137 68.4718 227.189 68.7219 227.292C68.9742 227.393 69.1923 227.539 69.3763 227.729C69.5603 227.92 69.7019 228.147 69.8012 228.412C69.9025 228.674 69.9531 228.967 69.9531 229.289V229.503C69.9531 229.824 69.9025 230.116 69.8012 230.381C69.7019 230.645 69.5603 230.873 69.3763 231.063C69.1944 231.251 68.9762 231.397 68.7219 231.5C68.4697 231.602 68.1906 231.652 67.8846 231.652ZM67.4287 227.137V231.652H66.4984V227.137H67.4287Z" fill="#151515"/>
<path d="M24.0742 189.672C35.1442 189.672 36.2155 204.085 47.9997 204.085C59.7839 204.085 56.9271 163.121 67.9972 163.121C79.0672 163.121 72.9965 128.606 88.3517 128.606C103.707 128.606 96.5649 163.121 110.492 163.121C124.418 163.121 122.276 122.83 131.203 122.83C140.131 122.83 137.631 146.812 148.344 146.812C159.057 146.812 154.058 107.256 165.485 107.256C176.912 107.256 175.84 124.523 186.196 124.523C196.552 124.523 197.623 144.536 211.907 144.536C226.191 144.536 217.264 166.843 230.833 166.843" stroke="#6C5FBC" stroke-width="1.98779" stroke-linecap="round" stroke-linejoin="round"/>
<path d="M196.172 128.244C197.992 128.244 199.583 129.835 199.583 131.943C199.583 134.052 197.992 135.643 196.172 135.643C194.352 135.642 192.762 134.052 192.762 131.943C192.762 129.835 194.352 128.244 196.172 128.244Z" fill="#C5BFED" stroke="#6C5FBC" stroke-width="2.22012"/>
<rect x="195.556" y="110.046" width="25.6489" height="11.9084" rx="5.95422" fill="#6C5FBC"/>
<path d="M204.199 116.762C204.199 116.955 204.149 117.136 204.049 117.306C203.953 117.473 203.808 117.612 203.616 117.723C203.427 117.83 203.203 117.893 202.944 117.911V118.361H202.589V117.906C202.219 117.872 201.921 117.761 201.696 117.573C201.47 117.38 201.353 117.121 201.346 116.796H202.178C202.201 117.062 202.338 117.223 202.589 117.278V116.218C202.323 116.152 202.108 116.085 201.945 116.019C201.783 115.952 201.642 115.845 201.524 115.697C201.405 115.549 201.346 115.347 201.346 115.092C201.346 114.77 201.461 114.507 201.69 114.304C201.923 114.1 202.223 113.983 202.589 113.954V113.504H202.944V113.954C203.3 113.983 203.583 114.091 203.794 114.276C204.008 114.461 204.128 114.716 204.154 115.042H203.316C203.305 114.934 203.266 114.842 203.2 114.764C203.137 114.683 203.052 114.625 202.944 114.592V115.641C203.222 115.711 203.44 115.78 203.599 115.847C203.762 115.909 203.903 116.015 204.021 116.163C204.14 116.307 204.199 116.507 204.199 116.762ZM202.156 115.053C202.156 115.175 202.193 115.275 202.267 115.353C202.341 115.427 202.449 115.488 202.589 115.536V114.576C202.456 114.594 202.351 114.644 202.273 114.725C202.195 114.807 202.156 114.916 202.156 115.053ZM202.944 117.29C203.085 117.264 203.194 117.206 203.272 117.118C203.353 117.029 203.394 116.921 203.394 116.796C203.394 116.674 203.355 116.575 203.277 116.501C203.2 116.427 203.089 116.366 202.944 116.318V117.29ZM204.944 117.09V116.479L206.759 113.882H207.664V116.413H208.152V117.09H207.664V117.878H206.887V117.09H204.944ZM206.937 114.714L205.799 116.413H206.937V114.714ZM208.647 115.802C208.647 115.162 208.762 114.661 208.991 114.298C209.224 113.935 209.609 113.754 210.146 113.754C210.682 113.754 211.065 113.935 211.294 114.298C211.528 114.661 211.644 115.162 211.644 115.802C211.644 116.446 211.528 116.951 211.294 117.317C211.065 117.684 210.682 117.867 210.146 117.867C209.609 117.867 209.224 117.684 208.991 117.317C208.762 116.951 208.647 116.446 208.647 115.802ZM210.878 115.802C210.878 115.528 210.86 115.299 210.823 115.114C210.789 114.925 210.719 114.772 210.612 114.653C210.508 114.535 210.353 114.476 210.146 114.476C209.938 114.476 209.781 114.535 209.674 114.653C209.57 114.772 209.5 114.925 209.463 115.114C209.43 115.299 209.413 115.528 209.413 115.802C209.413 116.083 209.43 116.32 209.463 116.513C209.496 116.701 209.566 116.855 209.674 116.973C209.781 117.088 209.938 117.145 210.146 117.145C210.353 117.145 210.51 117.088 210.617 116.973C210.725 116.855 210.795 116.701 210.828 116.513C210.862 116.32 210.878 116.083 210.878 115.802ZM213.134 116.74C213.164 116.903 213.23 117.029 213.334 117.118C213.441 117.203 213.584 117.245 213.761 117.245C213.991 117.245 214.157 117.151 214.261 116.962C214.365 116.77 214.416 116.448 214.416 115.996C214.331 116.115 214.211 116.207 214.056 116.274C213.904 116.34 213.739 116.374 213.562 116.374C213.325 116.374 213.11 116.326 212.918 116.229C212.729 116.13 212.579 115.983 212.468 115.791C212.357 115.595 212.302 115.358 212.302 115.081C212.302 114.67 212.424 114.344 212.668 114.104C212.912 113.86 213.245 113.737 213.667 113.737C214.193 113.737 214.563 113.906 214.777 114.242C214.995 114.579 215.105 115.086 215.105 115.763C215.105 116.244 215.062 116.638 214.977 116.945C214.896 117.253 214.753 117.486 214.55 117.645C214.35 117.804 214.076 117.883 213.728 117.883C213.454 117.883 213.221 117.832 213.029 117.728C212.836 117.621 212.688 117.482 212.585 117.312C212.485 117.138 212.428 116.947 212.413 116.74H213.134ZM213.723 115.741C213.915 115.741 214.067 115.682 214.178 115.563C214.289 115.445 214.344 115.286 214.344 115.086C214.344 114.868 214.285 114.699 214.167 114.581C214.052 114.459 213.895 114.398 213.695 114.398C213.495 114.398 213.336 114.461 213.218 114.587C213.103 114.709 213.045 114.872 213.045 115.075C213.045 115.271 213.101 115.432 213.212 115.558C213.327 115.68 213.497 115.741 213.723 115.741Z" fill="white"/>
<line opacity="0.09" x1="24.3278" y1="183.766" x2="230.306" y2="183.766" stroke="#6C5FBC" stroke-width="0.585257" stroke-linecap="round"/>
<line opacity="0.09" x1="25.0094" y1="159.109" x2="230.988" y2="159.109" stroke="#6C5FBC" stroke-width="0.585257" stroke-linecap="round"/>
<line opacity="0.09" x1="24.3278" y1="133.726" x2="230.306" y2="133.726" stroke="#6C5FBC" stroke-width="0.585257" stroke-linecap="round"/>
<g clip-path="url(#clip0_1_16838)">
<rect x="49.873" y="58.2773" width="37.9194" height="18.2662" rx="9.13309" fill="#6C5FBC"/>
<path d="M66.1004 64.9861V69.4102H65.5186V66.1113L64.0482 69.4102H63.639L62.1622 66.1049V69.4102H61.5804V64.9861H62.207L63.8436 68.643L65.4803 64.9861H66.1004ZM66.8697 67.6456C66.8697 67.2876 66.9421 66.9744 67.0871 66.7058C67.232 66.4331 67.4301 66.2221 67.6816 66.0729C67.9373 65.9238 68.2208 65.8492 68.5319 65.8492C68.8388 65.8492 69.1052 65.9152 69.3311 66.0474C69.5569 66.1795 69.7253 66.3457 69.8361 66.546V65.9067H70.4243V69.4102H69.8361V68.7581C69.721 68.9626 69.5484 69.1331 69.3183 69.2695C69.0924 69.4016 68.8281 69.4677 68.5255 69.4677C68.2144 69.4677 67.9331 69.391 67.6816 69.2375C67.4301 69.0841 67.232 68.8689 67.0871 68.5918C66.9421 68.3148 66.8697 67.9994 66.8697 67.6456ZM69.8361 67.652C69.8361 67.3878 69.7828 67.1576 69.6763 66.9616C69.5697 66.7655 69.4248 66.6163 69.2415 66.5141C69.0625 66.4075 68.8643 66.3542 68.647 66.3542C68.4296 66.3542 68.2314 66.4054 68.0524 66.5077C67.8734 66.61 67.7306 66.7591 67.6241 66.9552C67.5175 67.1512 67.4642 67.3814 67.4642 67.6456C67.4642 67.9142 67.5175 68.1486 67.6241 68.3489C67.7306 68.5449 67.8734 68.6963 68.0524 68.8028C68.2314 68.9051 68.4296 68.9562 68.647 68.9562C68.8643 68.9562 69.0625 68.9051 69.2415 68.8028C69.4248 68.6963 69.5697 68.5449 69.6763 68.3489C69.7828 68.1486 69.8361 67.9163 69.8361 67.652ZM71.7079 65.3377C71.5971 65.3377 71.5033 65.2994 71.4266 65.2226C71.3499 65.1459 71.3115 65.0522 71.3115 64.9413C71.3115 64.8305 71.3499 64.7368 71.4266 64.66C71.5033 64.5833 71.5971 64.545 71.7079 64.545C71.8145 64.545 71.904 64.5833 71.9764 64.66C72.0531 64.7368 72.0915 64.8305 72.0915 64.9413C72.0915 65.0522 72.0531 65.1459 71.9764 65.2226C71.904 65.2994 71.8145 65.3377 71.7079 65.3377ZM71.9892 65.9067V69.4102H71.4074V65.9067H71.9892ZM74.6877 65.8428C75.1139 65.8428 75.4592 65.9728 75.7234 66.2328C75.9877 66.4885 76.1198 66.8593 76.1198 67.3452V69.4102H75.5444V67.4283C75.5444 67.0788 75.457 66.8124 75.2823 66.6291C75.1075 66.4416 74.8689 66.3478 74.5662 66.3478C74.2594 66.3478 74.0143 66.4437 73.831 66.6355C73.652 66.8273 73.5625 67.1065 73.5625 67.473V69.4102H72.9807V65.9067H73.5625V66.4054C73.6776 66.2264 73.8332 66.0878 74.0292 65.9898C74.2295 65.8918 74.449 65.8428 74.6877 65.8428Z" fill="white"/>
<path d="M106.683 64.6368L105.3 69.4111H104.601L103.491 65.5684L102.341 69.4111L101.649 69.418L100.313 64.6368H100.978L102.019 68.6851L103.17 64.6368H103.868L104.964 68.6714L106.012 64.6368H106.683ZM110.859 67.3904C110.859 67.5092 110.852 67.6347 110.838 67.7672H107.838C107.861 68.1371 107.987 68.427 108.215 68.6371C108.448 68.8426 108.729 68.9453 109.058 68.9453C109.327 68.9453 109.551 68.8837 109.729 68.7604C109.911 68.6325 110.039 68.4636 110.112 68.2535H110.784C110.683 68.6143 110.482 68.9088 110.181 69.1371C109.88 69.3609 109.505 69.4728 109.058 69.4728C108.701 69.4728 108.382 69.3929 108.099 69.233C107.82 69.0732 107.601 68.8472 107.441 68.5549C107.281 68.2581 107.201 67.9156 107.201 67.5274C107.201 67.1393 107.279 66.7991 107.434 66.5068C107.589 66.2146 107.806 65.9908 108.085 65.8355C108.368 65.6757 108.692 65.5958 109.058 65.5958C109.414 65.5958 109.729 65.6734 110.003 65.8287C110.277 65.9839 110.487 66.1986 110.633 66.4726C110.784 66.742 110.859 67.0479 110.859 67.3904ZM110.215 67.2603C110.215 67.0228 110.163 66.8196 110.058 66.6507C109.953 66.4771 109.809 66.347 109.626 66.2602C109.448 66.1689 109.249 66.1232 109.03 66.1232C108.715 66.1232 108.446 66.2237 108.222 66.4246C108.003 66.6255 107.877 66.9041 107.845 67.2603H110.215ZM115.175 67.3904C115.175 67.5092 115.168 67.6347 115.155 67.7672H112.154C112.177 68.1371 112.303 68.427 112.531 68.6371C112.764 68.8426 113.045 68.9453 113.374 68.9453C113.643 68.9453 113.867 68.8837 114.045 68.7604C114.228 68.6325 114.356 68.4636 114.429 68.2535H115.1C114.999 68.6143 114.798 68.9088 114.497 69.1371C114.196 69.3609 113.821 69.4728 113.374 69.4728C113.018 69.4728 112.698 69.3929 112.415 69.233C112.136 69.0732 111.917 68.8472 111.757 68.5549C111.597 68.2581 111.517 67.9156 111.517 67.5274C111.517 67.1393 111.595 66.7991 111.75 66.5068C111.906 66.2146 112.122 65.9908 112.401 65.8355C112.684 65.6757 113.008 65.5958 113.374 65.5958C113.73 65.5958 114.045 65.6734 114.319 65.8287C114.593 65.9839 114.803 66.1986 114.949 66.4726C115.1 66.742 115.175 67.0479 115.175 67.3904ZM114.531 67.2603C114.531 67.0228 114.479 66.8196 114.374 66.6507C114.269 66.4771 114.125 66.347 113.942 66.2602C113.764 66.1689 113.566 66.1232 113.346 66.1232C113.031 66.1232 112.762 66.2237 112.538 66.4246C112.319 66.6255 112.193 66.9041 112.161 67.2603H114.531ZM118.163 69.4111L116.69 67.7535V69.4111H116.067V64.3423H116.69V67.3219L118.135 65.6574H119.005L117.238 67.5274L119.012 69.4111H118.163ZM120.284 64.3423V69.4111H119.66V64.3423H120.284ZM124.648 65.6574L122.387 71.1784H121.743L122.483 69.37L120.969 65.6574H121.661L122.839 68.6988L124.004 65.6574H124.648Z" fill="#828282"/>
<path d="M148.084 64.6711V69.4111H147.46V65.8766L145.885 69.4111H145.446L143.864 65.8698V69.4111H143.241V64.6711H143.912L145.666 68.5892L147.419 64.6711H148.084ZM150.846 69.4728C150.495 69.4728 150.175 69.3929 149.887 69.233C149.604 69.0732 149.381 68.8472 149.216 68.5549C149.056 68.2581 148.976 67.9156 148.976 67.5274C148.976 67.1438 149.059 66.8059 149.223 66.5137C149.392 66.2168 149.62 65.9908 149.908 65.8355C150.196 65.6757 150.518 65.5958 150.874 65.5958C151.23 65.5958 151.552 65.6757 151.84 65.8355C152.127 65.9908 152.353 66.2146 152.518 66.5068C152.687 66.7991 152.771 67.1393 152.771 67.5274C152.771 67.9156 152.684 68.2581 152.511 68.5549C152.342 68.8472 152.111 69.0732 151.819 69.233C151.527 69.3929 151.203 69.4728 150.846 69.4728ZM150.846 68.9248C151.07 68.9248 151.28 68.8723 151.477 68.7673C151.673 68.6622 151.83 68.5047 151.949 68.2946C152.072 68.0846 152.134 67.8288 152.134 67.5274C152.134 67.226 152.075 66.9703 151.956 66.7603C151.837 66.5502 151.682 66.3949 151.49 66.2945C151.298 66.1894 151.091 66.1369 150.867 66.1369C150.639 66.1369 150.429 66.1894 150.237 66.2945C150.05 66.3949 149.899 66.5502 149.785 66.7603C149.67 66.9703 149.613 67.226 149.613 67.5274C149.613 67.8334 149.668 68.0914 149.778 68.3015C149.892 68.5115 150.043 68.6691 150.23 68.7741C150.417 68.8746 150.623 68.9248 150.846 68.9248ZM155.488 65.5889C155.945 65.5889 156.315 65.7282 156.598 66.0068C156.881 66.2808 157.022 66.6781 157.022 67.1986V69.4111H156.406V67.2877C156.406 66.9132 156.312 66.6278 156.125 66.4315C155.938 66.2305 155.682 66.1301 155.358 66.1301C155.029 66.1301 154.767 66.2328 154.57 66.4383C154.378 66.6438 154.283 66.9429 154.283 67.3356V69.4111H153.659V65.6574H154.283V66.1917C154.406 65.9999 154.573 65.8515 154.783 65.7465C154.997 65.6415 155.232 65.5889 155.488 65.5889ZM158.87 66.1712V68.3837C158.87 68.5663 158.908 68.6965 158.986 68.7741C159.064 68.8472 159.198 68.8837 159.39 68.8837H159.849V69.4111H159.287C158.94 69.4111 158.68 69.3312 158.506 69.1714C158.333 69.0116 158.246 68.749 158.246 68.3837V66.1712H157.76V65.6574H158.246V64.7122H158.87V65.6574H159.849V66.1712H158.87ZM161.296 64.3423V69.4111H160.673V64.3423H161.296ZM165.66 65.6574L163.4 71.1784H162.756L163.496 69.37L161.982 65.6574H162.674L163.852 68.6988L165.016 65.6574H165.66Z" fill="#828282"/>
<path d="M187.175 64.6368L185.62 67.6096V69.4111H184.997V67.6096L183.435 64.6368H184.127L185.305 67.0548L186.483 64.6368H187.175ZM191.326 67.3904C191.326 67.5092 191.319 67.6347 191.305 67.7672H188.305C188.328 68.1371 188.453 68.427 188.682 68.6371C188.915 68.8426 189.196 68.9453 189.524 68.9453C189.794 68.9453 190.018 68.8837 190.196 68.7604C190.378 68.6325 190.506 68.4636 190.579 68.2535H191.25C191.15 68.6143 190.949 68.9088 190.648 69.1371C190.346 69.3609 189.972 69.4728 189.524 69.4728C189.168 69.4728 188.848 69.3929 188.565 69.233C188.287 69.0732 188.068 68.8472 187.908 68.5549C187.748 68.2581 187.668 67.9156 187.668 67.5274C187.668 67.1393 187.746 66.7991 187.901 66.5068C188.056 66.2146 188.273 65.9908 188.552 65.8355C188.835 65.6757 189.159 65.5958 189.524 65.5958C189.881 65.5958 190.196 65.6734 190.47 65.8287C190.744 65.9839 190.954 66.1986 191.1 66.4726C191.25 66.742 191.326 67.0479 191.326 67.3904ZM190.682 67.2603C190.682 67.0228 190.629 66.8196 190.524 66.6507C190.419 66.4771 190.276 66.347 190.093 66.2602C189.915 66.1689 189.716 66.1232 189.497 66.1232C189.182 66.1232 188.912 66.2237 188.689 66.4246C188.469 66.6255 188.344 66.9041 188.312 67.2603H190.682ZM191.984 67.5206C191.984 67.137 192.062 66.8014 192.217 66.5137C192.372 66.2214 192.585 65.9954 192.854 65.8355C193.128 65.6757 193.432 65.5958 193.765 65.5958C194.094 65.5958 194.379 65.6666 194.621 65.8081C194.863 65.9497 195.044 66.1278 195.163 66.3424V65.6574H195.793V69.4111H195.163V68.7125C195.039 68.9316 194.854 69.1143 194.608 69.2604C194.366 69.402 194.083 69.4728 193.758 69.4728C193.425 69.4728 193.124 69.3906 192.854 69.2262C192.585 69.0618 192.372 68.8312 192.217 68.5344C192.062 68.2375 191.984 67.8996 191.984 67.5206ZM195.163 67.5274C195.163 67.2443 195.105 66.9977 194.991 66.7877C194.877 66.5776 194.722 66.4178 194.526 66.3082C194.334 66.194 194.121 66.1369 193.888 66.1369C193.656 66.1369 193.443 66.1917 193.251 66.3013C193.06 66.4109 192.907 66.5707 192.793 66.7808C192.678 66.9909 192.621 67.2375 192.621 67.5206C192.621 67.8083 192.678 68.0594 192.793 68.2741C192.907 68.4841 193.06 68.6462 193.251 68.7604C193.443 68.87 193.656 68.9248 193.888 68.9248C194.121 68.9248 194.334 68.87 194.526 68.7604C194.722 68.6462 194.877 68.4841 194.991 68.2741C195.105 68.0594 195.163 67.8106 195.163 67.5274ZM197.538 66.2671C197.648 66.0524 197.803 65.8858 198.004 65.767C198.209 65.6483 198.458 65.5889 198.75 65.5889V66.2328H198.586C197.887 66.2328 197.538 66.6118 197.538 67.3699V69.4111H196.915V65.6574H197.538V66.2671ZM200.162 64.3423V69.4111H199.538V64.3423H200.162ZM204.526 65.6574L202.265 71.1784H201.621L202.361 69.37L200.847 65.6574H201.539L202.717 68.6988L203.882 65.6574H204.526Z" fill="#828282"/>
</g>
</g>
<defs>
<filter id="filter0_d_1_16838" x="8.55535" y="0.398375" width="264.611" height="261.345" filterUnits="userSpaceOnUse" color-interpolation-filters="sRGB">
<feFlood flood-opacity="0" result="BackgroundImageFix"/>
<feColorMatrix in="SourceAlpha" type="matrix" values="0 0 0 0 0 0 0 0 0 0 0 0 0 0 0 0 0 0 127 0" result="hardAlpha"/>
<feOffset dx="13.4074" dy="-16.7593"/>
<feGaussianBlur stdDeviation="13.9661"/>
<feComposite in2="hardAlpha" operator="out"/>
<feColorMatrix type="matrix" values="0 0 0 0 0 0 0 0 0 0 0 0 0 0 0 0 0 0 0.15 0"/>
<feBlend mode="normal" in2="BackgroundImageFix" result="effect1_dropShadow_1_16838"/>
<feBlend mode="normal" in="SourceGraphic" in2="effect1_dropShadow_1_16838" result="shape"/>
</filter>
<filter id="filter1_d_1_16838" x="0.46586" y="26.2625" width="282.297" height="280.79" filterUnits="userSpaceOnUse" color-interpolation-filters="sRGB">
<feFlood flood-opacity="0" result="BackgroundImageFix"/>
<feColorMatrix in="SourceAlpha" type="matrix" values="0 0 0 0 0 0 0 0 0 0 0 0 0 0 0 0 0 0 127 0" result="hardAlpha"/>
<feOffset dx="14.1205" dy="18.8273"/>
<feGaussianBlur stdDeviation="18.8273"/>
<feColorMatrix type="matrix" values="0 0 0 0 0.101961 0 0 0 0 0.12549 0 0 0 0 0.172549 0 0 0 0.15 0"/>
<feBlend mode="normal" in2="BackgroundImageFix" result="effect1_dropShadow_1_16838"/>
<feBlend mode="normal" in="SourceGraphic" in2="effect1_dropShadow_1_16838" result="shape"/>
</filter>
<clipPath id="clip0_1_16838">
<rect x="49.873" y="58.2773" width="159.389" height="18.2662" rx="9.13309" fill="white"/>
</clipPath>
</defs>
</svg>
