<svg width="17" height="16" viewBox="0 0 17 16" fill="none" xmlns="http://www.w3.org/2000/svg">
<path d="M7.78824 0.741543C8.1095 -0.247181 9.50828 -0.247181 9.82953 0.741543L10.9774 4.2742C11.121 4.71637 11.5331 5.01575 11.998 5.01575H15.7125C16.7521 5.01575 17.1843 6.34607 16.3433 6.95713L13.3382 9.14044C12.9621 9.41371 12.8047 9.89811 12.9483 10.3403L14.0962 13.8729C14.4174 14.8617 13.2858 15.6838 12.4447 15.0728L9.43968 12.8895C9.06355 12.6162 8.55422 12.6162 8.17809 12.8895L5.17303 15.0728C4.33197 15.6838 3.20034 14.8617 3.52159 13.8729L4.66942 10.3403C4.81309 9.89811 4.6557 9.41371 4.27957 9.14044L1.27451 6.95713C0.433453 6.34607 0.865701 5.01575 1.90531 5.01575H5.61976C6.08469 5.01575 6.49674 4.71637 6.64041 4.2742L7.78824 0.741543Z" fill="#F59E0B"/>
</svg>
